<svg xmlns="http://www.w3.org/2000/svg" width="27.057" height="27.057" viewBox="0 0 27.057 27.057">
  <g id="_book" data-name=" book" transform="translate(-489.5 -187.5)">
    <g id="book" transform="translate(490 188)">
      <path id="Vector" d="M18.457,5.428v8.686H3.094A3.1,3.1,0,0,0,0,17.208V5.428C0,1.086,1.086,0,5.428,0h7.6C17.371,0,18.457,1.086,18.457,5.428Z" transform="translate(3.8 2.171)" fill="none" stroke="#fff" stroke-width="1"/>
      <path id="Vector-2" data-name="Vector" d="M18.457,0V3.8a3.8,3.8,0,0,1-3.8,3.8H3.8A3.8,3.8,0,0,1,0,3.8V3.094A3.1,3.1,0,0,1,3.094,0Z" transform="translate(3.8 16.285)" fill="none" stroke="#fff" stroke-width="1"/>
      <path id="Vector-3" data-name="Vector" d="M9.5,1.629H.814A.82.82,0,0,1,0,.814.82.82,0,0,1,.814,0H9.5a.82.82,0,0,1,.814.814A.82.82,0,0,1,9.5,1.629Z" transform="translate(7.871 6.786)" fill="none" stroke="#fff" stroke-width="1"/>
      <path id="Vector-4" data-name="Vector" d="M6.243,1.629H.814A.82.82,0,0,1,0,.814.82.82,0,0,1,.814,0H6.243a.82.82,0,0,1,.814.814A.82.82,0,0,1,6.243,1.629Z" transform="translate(7.871 10.586)" fill="none" stroke="#fff" stroke-width="1"/>
      <path id="Vector-5" data-name="Vector" d="M0,0H26.057V26.057H0Z" fill="#fff" stroke="#707070" stroke-width="1" opacity="0"/>
    </g>
  </g>
</svg>
