<svg id="shopping-cart" xmlns="http://www.w3.org/2000/svg" width="29.61" height="29.61" viewBox="0 0 29.61 29.61">
  <path id="Vector" d="M0,0H2.147a2.282,2.282,0,0,1,2.27,2.467L3.393,14.756a3.454,3.454,0,0,0,3.442,3.738H19.974a3.549,3.549,0,0,0,3.467-3.22l.666-9.253a3.421,3.421,0,0,0-3.467-3.714H4.713" transform="translate(2.467 2.467)" fill="none" stroke="#fff" stroke-linecap="round" stroke-linejoin="round" stroke-width="2"/>
  <path id="Vector-2" data-name="Vector" d="M3.084,1.542A1.542,1.542,0,1,1,1.542,0,1.542,1.542,0,0,1,3.084,1.542Z" transform="translate(18.506 24.058)" fill="none" stroke="#fff" stroke-linecap="round" stroke-linejoin="round" stroke-width="2" opacity="0.4"/>
  <path id="Vector-3" data-name="Vector" d="M3.084,1.542A1.542,1.542,0,1,1,1.542,0,1.542,1.542,0,0,1,3.084,1.542Z" transform="translate(8.636 24.058)" fill="none" stroke="#fff" stroke-linecap="round" stroke-linejoin="round" stroke-width="2" opacity="0.4"/>
  <path id="Vector-4" data-name="Vector" d="M0,0H14.8" transform="translate(11.104 9.87)" fill="none" stroke="#fff" stroke-linecap="round" stroke-linejoin="round" stroke-width="2" opacity="0.4"/>
  <path id="Vector-5" data-name="Vector" d="M0,0H29.61V29.61H0Z" fill="none" opacity="0"/>
</svg>
