<svg xmlns="http://www.w3.org/2000/svg" width="19" height="19" viewBox="0 0 19 19">
  <g id="Group_1283" data-name="Group 1283" transform="translate(-52 -585)">
    <circle id="Ellipse_25" data-name="Ellipse 25" cx="9.5" cy="9.5" r="9.5" transform="translate(52 585)" fill="#149f83"/>
    <g id="shopping-cart" transform="translate(54.626 588.001)">
      <path id="Vector" d="M0,0H1.053A1.12,1.12,0,0,1,2.167,1.211l-.5,6.029A1.695,1.695,0,0,0,3.353,9.074H9.8a1.741,1.741,0,0,0,1.7-1.58l.327-4.54a1.679,1.679,0,0,0-1.7-1.822H2.312" transform="translate(1.211 1.211)" fill="none" stroke="#fff" stroke-linecap="round" stroke-linejoin="round" stroke-width="0.7"/>
      <path id="Vector-2" data-name="Vector" d="M1.513.757A.757.757,0,1,1,.757,0,.757.757,0,0,1,1.513.757Z" transform="translate(9.08 11.803)" fill="none" stroke="#fff" stroke-linecap="round" stroke-linejoin="round" stroke-width="0.7" opacity="0.4"/>
      <path id="Vector-3" data-name="Vector" d="M1.513.757A.757.757,0,1,1,.757,0,.757.757,0,0,1,1.513.757Z" transform="translate(4.237 11.803)" fill="none" stroke="#fff" stroke-linecap="round" stroke-linejoin="round" stroke-width="0.7" opacity="0.4"/>
      <path id="Vector-4" data-name="Vector" d="M0,0H7.264" transform="translate(5.448 4.842)" fill="none" stroke="#fff" stroke-linecap="round" stroke-linejoin="round" stroke-width="0.7" opacity="0.4"/>
      <path id="Vector-5" data-name="Vector" d="M0,0H14.527V14.527H0Z" fill="none" opacity="0"/>
    </g>
  </g>
</svg>
