<svg xmlns="http://www.w3.org/2000/svg" width="22.11" height="21.425" viewBox="0 0 22.11 21.425">
  <g id="Group_550" data-name="Group 550" transform="translate(-6908.661 -2379.093)">
    <path id="Vector" d="M8.794,6.568l-.585-.941a2.054,2.054,0,0,1-.234-.839V3.355A3.411,3.411,0,0,0,4.51,0,3.411,3.411,0,0,0,1.045,3.355V4.789a2,2,0,0,1-.234.833L.22,6.568A1.289,1.289,0,0,0,.081,7.756a1.351,1.351,0,0,0,.906.812,11.271,11.271,0,0,0,3.523.555,11.434,11.434,0,0,0,3.523-.55,1.391,1.391,0,0,0,.88-.826,1.329,1.329,0,0,0-.119-1.181Z" transform="translate(6914.928 2385.967)" fill="#FFFFFF" opacity=""/>
    <path id="Vector-2" data-name="Vector" d="M6.483,3.139A3.191,3.191,0,0,1,3.242,6.278,3.191,3.191,0,0,1,0,3.139,3.191,3.191,0,0,1,3.242,0,3.191,3.191,0,0,1,6.483,3.139Z" transform="translate(6924.288 2379.093)" fill="#FFFFFF"/>
    <path id="Vector-3" data-name="Vector" d="M18.369,6.8a4.8,4.8,0,0,1-4.862-4.708A4.6,4.6,0,0,1,14.036,0H5.964C2.237,0,0,2.155,0,5.775v8.318c0,3.631,2.237,5.786,5.964,5.786h8.59c3.739,0,5.964-2.155,5.964-5.775V6.288A4.918,4.918,0,0,1,18.369,6.8Z" transform="translate(6909.161 2380.139)" fill="none" stroke="#FFFFFF" stroke-width="1"/>
  </g>
</svg>
