<svg id="surface1" xmlns="http://www.w3.org/2000/svg" width="68.322" height="68.322" viewBox="0 0 68.322 68.322">
  <path id="Path_68" data-name="Path 68" d="M15.528,0A15.556,15.556,0,0,0,0,15.528a6.208,6.208,0,0,0,6.211,6.211H8.2A12.47,12.47,0,0,0,6.211,27.95v9.317A31.056,31.056,0,1,0,37.267,6.211a30.542,30.542,0,0,0-8.48,1.213A15.037,15.037,0,0,0,15.528,0Zm0,6.211a9.221,9.221,0,0,1,9.317,9.317c0,4.416-6.211,9.365-6.211,12.422H12.422c0-3.033,6.211-9.147,6.211-12.422a3.055,3.055,0,0,0-3.106-3.106c-2.56,0-3.106,2.6-3.106,3.106H6.211C6.211,11.767,9.171,6.211,15.528,6.211ZM32.608,21.739c2.572,0,4.658,2.778,4.658,6.211s-2.086,6.211-4.658,6.211S27.95,31.383,27.95,27.95,30.037,21.739,32.608,21.739ZM46.583,27.95H55.9V29.5a4.658,4.658,0,1,1-9.317,0ZM12.422,34.161h6.211v6.211H12.422Zm35.86,9.377a1.369,1.369,0,0,1,1.407,1.322,8.093,8.093,0,0,1-8.213,7.934,9.259,9.259,0,0,1-7.048-3.19,1.256,1.256,0,0,1-.036-1.5C34.525,47.918,37.728,43.539,48.282,43.539Z" fill="#149f83"/>
</svg>
